Coordinates
version=1
nRows=24
nColumns=38
inDegrees=no

Units are S.I. units (second, meters, Newtons, ...)
If the header above contains a line with 'inDegrees', this indicates whether rotational values are in degrees (yes) or radians (no).

endheader
time	pelvis_tilt	pelvis_list	pelvis_rotation	pelvis_tx	pelvis_ty	pelvis_tz	hip_flexion_r	hip_adduction_r	hip_rotation_r	knee_angle_r	ankle_angle_r	subtalar_angle_r	mtp_angle_r	hip_flexion_l	hip_adduction_l	hip_rotation_l	knee_angle_l	ankle_angle_l	subtalar_angle_l	mtp_angle_l	lumbar_extension	lumbar_bending	lumbar_rotation	arm_flex_r	arm_add_r	arm_rot_r	elbow_flex_r	pro_sup_r	wrist_flex_r	wrist_dev_r	arm_flex_l	arm_add_l	arm_rot_l	elbow_flex_l	pro_sup_l	wrist_flex_l	wrist_dev_l
70	-2.84616	1.35556	1.33486	0.756206	1.82262	0.965074	-0.0674939	-0.0240739	-0.241733	0.327669	-0.000827552	0	0	0.572567	-0.143644	-0.183484	0.185233	-0.350864	0	0	0.0140438	-0.028336	0.0375053	0.208902	-0.174855	0.278086	0.67154	1.5708	0	0	-0.0993387	-0.43343	0.829723	0.533244	0.780019	0	0
70.01	-2.74567	1.21337	1.21581	0.761957	1.81106	0.951111	0.0769705	0.043038	-0.175663	0.366411	-0.0208938	0	0	0.744818	-0.210099	-0.170129	0.27412	-0.295348	0	0	0.202576	0.063535	0.0591902	0.15317	-0.211572	0.290375	0.69386	1.5708	0	0	-0.140263	-0.398541	0.871602	0.508751	0.750328	0	0
70.02	-2.9043	1.33589	1.41201	0.764608	1.80282	0.96605	-0.0388271	-0.0444938	-0.233834	0.385324	-0.0407256	0	0	0.607022	-0.115859	-0.199517	0.240265	-0.344065	0	0	0.0438288	-0.0526832	0.0322058	0.212162	-0.164411	0.269604	0.664089	1.5708	0	0	-0.0955856	-0.446401	0.872808	0.537769	0.727792	0	0
70.03	-2.91389	1.33151	1.4308	0.768621	1.793	0.967373	-0.0288857	-0.0515466	-0.227668	0.417281	-0.0576299	0	0	0.611951	-0.11074	-0.194644	0.261371	-0.345877	0	0	0.0499276	-0.0617393	0.0312696	0.214968	-0.160437	0.264302	0.662442	1.5708	0	0	-0.094273	-0.452776	0.877289	0.545336	0.718695	0	0
70.04	-2.92215	1.3238	1.447	0.772622	1.78311	0.96858	-0.0132551	-0.0583233	-0.220639	0.45266	-0.0839842	0	0	0.618147	-0.105912	-0.187782	0.278216	-0.349081	0	0	0.06161	-0.0694132	0.0340705	0.215395	-0.157575	0.258046	0.659756	1.5708	0	0	-0.0894069	-0.455108	0.893002	0.543548	0.710812	0	0
70.05	-2.92768	1.31677	1.45888	0.776534	1.77318	0.969933	0.00357581	-0.0649728	-0.213823	0.490709	-0.114253	0	0	0.62064	-0.1012	-0.18014	0.289064	-0.351888	0	0	0.0729691	-0.0759015	0.0387674	0.21618	-0.155712	0.253669	0.656743	1.5708	0	0	-0.0859656	-0.457726	0.907205	0.54286	0.711618	0	0
70.06	-2.92976	1.3124	1.46625	0.780532	1.76342	0.971546	0.0196108	-0.0717262	-0.20895	0.530891	-0.14744	0	0	0.618553	-0.0965653	-0.172778	0.29626	-0.352329	0	0	0.0805406	-0.0808115	0.0439652	0.218533	-0.155359	0.251226	0.655323	1.5708	0	0	-0.0835635	-0.460983	0.917176	0.545079	0.719125	0	0
70.07	-2.92971	1.31046	1.46931	0.784521	1.75387	0.973335	0.0354489	-0.0786684	-0.204435	0.573242	-0.182966	0	0	0.613173	-0.0929656	-0.169222	0.302685	-0.349828	0	0	0.0844562	-0.0841994	0.0509302	0.22254	-0.156873	0.251627	0.654931	1.5708	0	0	-0.0788309	-0.463418	0.922374	0.550472	0.711277	0	0
70.08	-2.9321	1.31032	1.47264	0.788526	1.74448	0.975211	0.0517152	-0.087045	-0.200871	0.617561	-0.218974	0	0	0.606048	-0.089924	-0.172205	0.310347	-0.344803	0	0	0.0864323	-0.0869943	0.0597643	0.228384	-0.159377	0.253921	0.65353	1.5708	0	0	-0.0723865	-0.464346	0.929905	0.555332	0.70484	0	0
70.09	-2.94274	1.3104	1.48273	0.792581	1.73526	0.977042	0.0699236	-0.0983565	-0.198924	0.663534	-0.274084	0	0	0.598548	-0.0858256	-0.182427	0.318189	-0.336965	0	0	0.0884668	-0.091287	0.0679816	0.237072	-0.16216	0.261797	0.64994	1.5708	0	0	-0.0705973	-0.462984	0.920914	0.559359	0.722441	0	0
70.1	-2.95205	1.30994	1.49085	0.796361	1.72621	0.978671	0.0900579	-0.10859	-0.196898	0.709903	-0.297769	0	0	0.590129	-0.0815503	-0.190305	0.322043	-0.33094	0	0	0.0913675	-0.094778	0.0757156	0.246961	-0.165002	0.272073	0.646435	1.5708	0	0	-0.0694098	-0.462544	0.914778	0.564333	0.737763	0	0
70.11	-2.75015	1.27883	1.28057	0.797981	1.71677	0.973104	0.132398	-0.0424246	-0.17553	0.755099	-0.3247	0	0	0.64539	-0.186721	-0.364409	0.432786	-0.293152	0	0	0.128715	-0.0197169	0.0860754	0.240661	-0.191691	0.299446	0.674768	1.5708	0	0	-0.0939089	-0.453052	0.883599	0.587132	0.773151	0	0
70.12	-2.96548	1.30735	1.50166	0.80315	1.70865	0.981622	0.134042	-0.124905	-0.192278	0.797861	-0.366403	0	0	0.572072	-0.0741251	-0.205576	0.322886	-0.321346	0	0	0.0988462	-0.100004	0.0856243	0.274012	-0.170004	0.308212	0.634928	1.5708	0	0	-0.077897	-0.460146	0.868762	0.577215	0.795493	0	0
70.13	-3.05078	1.30022	1.59626	0.806496	1.70118	0.985051	0.162663	-0.156438	-0.199136	0.838177	-0.391124	0	0	0.551515	-0.0302876	-0.132374	0.273052	-0.33446	0	0	0.102819	-0.132317	0.0789686	0.295703	-0.158403	0.320265	0.612371	1.5708	0	0	-0.0757243	-0.46615	0.847746	0.580372	0.812755	0	0
70.14	-2.96035	1.3089	1.49613	0.80933	1.69142	0.984924	0.171322	-0.133326	-0.188232	0.870753	-0.39752	0	0	0.550082	-0.0721674	-0.223374	0.325635	-0.305202	0	0	0.100114	-0.0997475	0.0866381	0.309349	-0.172142	0.351608	0.61849	1.5708	0	0	-0.0909666	-0.45638	0.804788	0.594387	0.840479	0	0
70.15	-2.93805	1.31545	1.47445	0.812055	1.68297	0.987119	0.181815	-0.131137	-0.185695	0.900381	-0.392388	0	0	0.532659	-0.075922	-0.227216	0.325872	-0.298963	0	0	0.093109	-0.0947717	0.087141	0.327422	-0.173881	0.369375	0.612998	1.5708	0	0	-0.0940963	-0.454254	0.777659	0.603496	0.856653	0	0
70.16	-2.91929	1.3223	1.45787	0.815093	1.67459	0.989484	0.190958	-0.131075	-0.185265	0.926256	-0.380776	0	0	0.514753	-0.0779512	-0.232233	0.324704	-0.294869	0	0	0.0856659	-0.0906976	0.0851277	0.345397	-0.174967	0.385337	0.607949	1.5708	0	0	-0.0963555	-0.451047	0.75349	0.611013	0.872253	0	0
70.17	-2.90956	1.3301	1.45061	0.818192	1.6662	0.992075	0.198539	-0.134044	-0.185439	0.948032	-0.366085	0	0	0.49502	-0.0772726	-0.238968	0.320959	-0.291975	0	0	0.0774003	-0.0893175	0.0824617	0.363519	-0.175049	0.399869	0.602248	1.5708	0	0	-0.0981337	-0.447676	0.730017	0.617441	0.885645	0	0
70.18	-2.89615	1.336	1.44028	0.821313	1.65803	0.99449	0.207738	-0.13589	-0.185915	0.966248	-0.354796	0	0	0.478856	-0.078519	-0.250006	0.320566	-0.287808	0	0	0.0721053	-0.0867788	0.0815855	0.378862	-0.176304	0.4098	0.598232	1.5708	0	0	-0.0968768	-0.444432	0.714851	0.622246	0.89355	0	0
70.19	-2.82397	1.33139	1.37344	0.825013	1.65026	0.995414	0.224887	-0.121318	-0.188564	0.980387	-0.347625	0	0	0.478249	-0.0975258	-0.263807	0.33463	-0.279396	0	0	0.0781207	-0.0645091	0.0781511	0.390309	-0.183497	0.420251	0.599902	1.5708	0	0	-0.0975989	-0.435476	0.703365	0.624688	0.899156	0	0
70.2	-2.46656	1.19523	0.968859	0.825798	1.63879	0.978787	0.330579	0.0595644	-0.14887	0.991342	-0.33719	0	0	0.616127	-0.33957	-0.458098	0.517187	-0.185112	0	0	0.215617	0.143164	0.102234	0.356591	-0.259078	0.49305	0.670169	1.5708	0	0	-0.1711	-0.38528	0.647973	0.653332	0.935901	0	0
70.21	-2.42127	1.19712	0.929854	0.828912	1.63114	0.981032	0.33368	0.0689059	-0.155936	0.996563	-0.331836	0	0	0.598194	-0.350144	-0.458773	0.519066	-0.178615	0	0	0.204469	0.157446	0.0956171	0.37562	-0.262746	0.505896	0.669942	1.5708	0	0	-0.170272	-0.379515	0.629336	0.660948	0.94892	0	0
70.22	-2.21468	1.15387	0.764733	0.835715	1.6276	0.979082	0.328697	0.148278	-0.20591	0.98715	-0.328507	0	0	0.631089	-0.434919	-0.410475	0.591395	-0.152494	0	0	0.18247	0.260354	0.0454874	0.407715	-0.304987	0.549473	0.713728	1.5708	0	0	-0.174771	-0.355459	0.588882	0.691849	0.972369	0	0
70.23	-2.16678	1.14464	0.72105	0.838852	1.61999	0.980257	0.33441	0.165146	-0.214686	0.984469	-0.319444	0	0	0.619703	-0.45801	-0.415664	0.600362	-0.143205	0	0	0.177281	0.285202	0.0400191	0.42575	-0.312665	0.565155	0.717828	1.5708	0	0	-0.176937	-0.349278	0.573151	0.704945	0.983722	0	0
